# xmcd
#
# Track frame offsets: 
#        150
#        18397
#        45519
#        75420
#        95704
#        118069
#        140054
#        162044
#        184915
#        207738
#        231155
#
# Disc length: 3416 seconds
#
# Revision: 0
# Processed by: cddbd v1.5.2PL0 Copyright (c) Steve Scherf et al.
# Submitted via: ExactAudioCopy v1.0b1
#
DISCID=950d560b
DTITLE=Various Artist - Tinh Dau Tinh Cuoi - Tuyet Pham Tuyen Chon
DYEAR=2008
DGENRE=Pop
TTITLE0=Van Khanh - Sao Anh Vo Tinh (Nguyen Huu Sang)
TTITLE1=Phuong Thanh - Giot Le Dai Trang (Chau Ky)
TTITLE2=Khanh Duy - Tinh Dau Tinh Cuoi (Tran Thien Thanh Toan)
TTITLE3=Thu Hien - Mua Rung (Huynh Anh)
TTITLE4=Van Khanh - Yeu Nguoi Nhu The Do (Tran Thien Thanh, Pham Le Ph
TTITLE4=an)
TTITLE5=Khanh Duy - Gia Tu (To Thanh Tung, Van Vi)
TTITLE6=Phuong Thanh - Qua Con Me (Tran Thinh, Nhat Ngan)
TTITLE7=Thu Hien - Phan To Tam (Nhac: Minh Ky, tho: Ho Tinh Tam)
TTITLE8=Van Khanh - Bay Ngay Doi Mong (Tran Thien Thanh)
TTITLE9=Khanh Duy - Thanh Pho Buon (Lam Phuong)
TTITLE10=Thu Hien - Xom Dem (Pham Dinh Chuong) 
EXTD=
EXTT0=
EXTT1=
EXTT2=
EXTT3=
EXTT4=
EXTT5=
EXTT6=
EXTT7=
EXTT8=
EXTT9=
EXTT10=
PLAYORDER=
